<svg id="Layer_1" data-name="Layer 1" xmlns="http://www.w3.org/2000/svg" viewBox="0 0 733.61 158.4"><defs><style>.cls-1{fill:#484948;}.cls-2{fill:#e41915;}</style></defs><path class="cls-1" d="M109.17,257.66c1.76,1.53,2.64,3.83,2.64,6.88s-.76,5.53-2.29,7.06-4.29,2.53-8.29,3l-5.29.53q-10.41,1-15.26,7.05t-4.85,15v37q0,5.11-3.18,7.85a11.72,11.72,0,0,1-7.93,2.73,11.39,11.39,0,0,1-7.85-2.73q-3.09-2.73-3.09-7.85V266q0-4.95,3.09-7.59a11.37,11.37,0,0,1,7.67-2.65A10.63,10.63,0,0,1,72,258.28q2.82,2.57,2.82,7.32v7.06a26.11,26.11,0,0,1,10-12,30.55,30.55,0,0,1,14.73-4.76l2.47-.18Q106.51,255.38,109.17,257.66Z" transform="translate(-53.78 -218.51)"/><path class="cls-1" d="M132.19,339.69A37.87,37.87,0,0,1,116.75,324q-5.46-10.23-5.47-23.81t5.47-23.73a38,38,0,0,1,15.44-15.61q10-5.46,23.19-5.47t23.2,5.47a37.5,37.5,0,0,1,15.35,15.61q5.37,10.14,5.38,23.73T193.93,324a37.37,37.37,0,0,1-15.35,15.7q-10,5.46-23.2,5.47T132.19,339.69ZM171.61,321q5.64-7,5.65-20.81,0-13.59-5.65-20.73t-16.23-7.14q-10.57,0-16.31,7.14t-5.74,20.73q0,13.76,5.65,20.81t16.23,7.06Q166,328.05,171.61,321Z" transform="translate(-53.78 -218.51)"/><path class="cls-1" d="M294.91,258.55a9.91,9.91,0,0,1,3,7.58v69.68q0,20.28-11.29,30.69t-33.34,10.41q-19.23,0-32.1-7.24-6.52-3.87-6.53-9.34a9.58,9.58,0,0,1,1.85-6.18,5.93,5.93,0,0,1,4.85-2.29,12.17,12.17,0,0,1,3.88.79q2.29.8,4.77,1.85a99.06,99.06,0,0,0,11.38,4.06A42.87,42.87,0,0,0,252.93,360Q276,360,276,337.39V326.11a27,27,0,0,1-11.29,11.2,35.39,35.39,0,0,1-16.94,4,37.36,37.36,0,0,1-20-5.38,36.9,36.9,0,0,1-13.67-15.08,48.71,48.71,0,0,1-4.94-22.4A50.07,50.07,0,0,1,214,275.92a36.1,36.1,0,0,1,13.67-15.17,37.92,37.92,0,0,1,20.11-5.38,35.28,35.28,0,0,1,16.94,4A27,27,0,0,1,276,270.54V266a9.66,9.66,0,0,1,3-7.41,12.54,12.54,0,0,1,15.87,0Zm-24.78,58.74Q276,310.4,276,298.41q0-12.17-5.91-19.05t-16.5-6.88q-10.41,0-16.4,6.88t-6,19.05q0,12,6,18.88t16.4,6.87Q264.22,324.16,270.13,317.29Z" transform="translate(-53.78 -218.51)"/><path class="cls-1" d="M393.34,258.55a9.91,9.91,0,0,1,3,7.58v68.44a9.56,9.56,0,0,1-3.09,7.41,11.45,11.45,0,0,1-8,2.82,10.65,10.65,0,0,1-7.58-2.64,9.46,9.46,0,0,1-2.82-7.24v-4.41a28,28,0,0,1-10.94,10.85,31.6,31.6,0,0,1-15.52,3.8q-31.75,0-31.75-35.64V266.13a9.9,9.9,0,0,1,3-7.58,11.13,11.13,0,0,1,7.94-2.83,11.39,11.39,0,0,1,8.12,2.83,9.91,9.91,0,0,1,3,7.58V309.7q0,9.18,3.7,13.58T354,327.69q9.17,0,14.73-6.08t5.56-16.14V266.13a9.88,9.88,0,0,1,3-7.58,11.09,11.09,0,0,1,7.93-2.83A11.39,11.39,0,0,1,393.34,258.55Z" transform="translate(-53.78 -218.51)"/><path class="cls-1" d="M488.85,322.4a9.52,9.52,0,0,1,1.86,6.17q0,5.48-6.53,9.18a59.09,59.09,0,0,1-13.59,5.38,56,56,0,0,1-14.46,2q-20.82,0-33-12T411,300.35a50.31,50.31,0,0,1,5.29-23.46A38.44,38.44,0,0,1,431.17,261,42.16,42.16,0,0,1,453,255.37a39.07,39.07,0,0,1,20.28,5.12A34.74,34.74,0,0,1,486.65,275q4.75,9.36,4.76,22.05,0,7.59-6.7,7.59h-52q1.06,12.17,6.88,17.9t16.93,5.73a32.12,32.12,0,0,0,10-1.41,97.82,97.82,0,0,0,9.79-3.88c3.53-1.88,6.11-2.82,7.76-2.82A5.92,5.92,0,0,1,488.85,322.4Zm-49.74-45.86q-5.39,5.64-6.44,16.23h39.87q-.36-10.77-5.3-16.32t-13.76-5.56Q444.5,270.89,439.11,276.54Z" transform="translate(-53.78 -218.51)"/><path class="cls-1" d="M586.66,290.83v43.39a10.31,10.31,0,0,1-2.91,7.76q-2.91,2.82-8,2.82a11.36,11.36,0,0,1-8.11-2.82,10.14,10.14,0,0,1-3-7.76V290.83q0-9.36-3.79-13.67t-11.91-4.33q-9.52,0-15.26,6t-5.73,16.05v39.34a10.14,10.14,0,0,1-3,7.76,11.36,11.36,0,0,1-8.11,2.82q-5.11,0-8-2.82a10.31,10.31,0,0,1-2.91-7.76V228.74a9.56,9.56,0,0,1,3.09-7.41,11.44,11.44,0,0,1,8-2.82,11.56,11.56,0,0,1,7.93,2.64,9.16,9.16,0,0,1,3,7.23v41.1A28.9,28.9,0,0,1,539.65,259a37.17,37.17,0,0,1,16.67-3.62Q586.67,255.37,586.66,290.83Z" transform="translate(-53.78 -218.51)"/><path class="cls-1" d="M784.4,258.55a9.94,9.94,0,0,1,3,7.58v69.68q0,20.28-11.28,30.69t-33.34,10.41q-19.23,0-32.11-7.24-6.52-3.87-6.52-9.34a9.53,9.53,0,0,1,1.85-6.18,5.92,5.92,0,0,1,4.85-2.29,12.22,12.22,0,0,1,3.88.79c1.53.53,3.11,1.15,4.76,1.85a100.42,100.42,0,0,0,11.38,4.06A42.87,42.87,0,0,0,742.41,360q23.12,0,23.11-22.58V326.11a27,27,0,0,1-11.29,11.2,35.35,35.35,0,0,1-16.93,4,37.34,37.34,0,0,1-20-5.38,36.9,36.9,0,0,1-13.67-15.08,48.59,48.59,0,0,1-4.94-22.4,49.93,49.93,0,0,1,4.85-22.49,36,36,0,0,1,13.67-15.17,37.89,37.89,0,0,1,20.11-5.38,35.24,35.24,0,0,1,16.93,4,27,27,0,0,1,11.29,11.2V266a9.7,9.7,0,0,1,3-7.41,12.55,12.55,0,0,1,15.88,0Zm-24.79,58.74q5.91-6.89,5.91-18.88,0-12.17-5.91-19.05t-16.49-6.88q-10.41,0-16.41,6.88t-6,19.05q0,12,6,18.88t16.41,6.87Q753.71,324.16,759.61,317.29Z" transform="translate(-53.78 -218.51)"/><path class="cls-2" d="M619.56,339.86a37.76,37.76,0,0,1-15.44-15.7q-5.46-10.21-5.47-23.81t5.47-23.72A38,38,0,0,1,619.56,261q10-5.47,23.19-5.47T666,261a37.36,37.36,0,0,1,15.34,15.61q5.38,10.14,5.38,23.72t-5.38,23.81A37.18,37.18,0,0,1,666,339.86q-10,5.47-23.2,5.47T619.56,339.86ZM659,321.17q5.64-7.07,5.65-20.82,0-13.58-5.65-20.72t-16.23-7.15q-10.57,0-16.31,7.15t-5.74,20.72q0,13.75,5.65,20.82t16.23,7.05Q653.34,328.22,659,321.17Z" transform="translate(-53.78 -218.51)"/><path class="cls-2" d="M658.08,298l-23-13.29a2.83,2.83,0,0,0-4.25,2.45v26.58a2.83,2.83,0,0,0,4.25,2.45l23-13.29A2.83,2.83,0,0,0,658.08,298Z" transform="translate(-53.78 -218.51)"/></svg>