<svg id="Layer_1" data-name="Layer 1" xmlns="http://www.w3.org/2000/svg" viewBox="0 0 404.5 412.61"><defs><style>.cls-1{fill:#e41915;}</style></defs><path class="cls-1" d="M314.39,478.88q-45.79-25.12-70.93-72.15T218.34,297.3q0-62.42,25.12-109t70.93-71.74Q360.19,91.42,421,91.4t106.6,25.13q45.78,25.14,70.52,71.74t24.73,109q0,62.43-24.73,109.43t-70.52,72.15Q481.78,504,421,504T314.39,478.88ZM495.57,393q25.94-32.42,25.94-95.65,0-62.42-25.94-95.25T421,169.22q-48.63,0-75,32.83T319.67,297.3q0,63.22,25.93,95.65t74.58,32.43Q469.62,425.38,495.57,393Z" transform="translate(-218.34 -91.4)"/><path class="cls-1" d="M506.72,295.25,370.39,216.54a2.83,2.83,0,0,0-4.25,2.46V376.42a2.83,2.83,0,0,0,4.25,2.45l136.33-78.71A2.83,2.83,0,0,0,506.72,295.25Z" transform="translate(-218.34 -91.4)"/></svg>