<svg id="Layer_1" data-name="Layer 1" xmlns="http://www.w3.org/2000/svg" viewBox="0 0 755.46 163.12"><defs><style>.cls-1{fill:#fff;}</style></defs><path class="cls-1" d="M99.89,256.47q2.73,2.37,2.73,7.09,0,4.9-2.36,7.26c-1.58,1.58-4.42,2.61-8.54,3.09l-5.45.54q-10.72,1.1-15.71,7.27t-5,15.44v38.15q0,5.26-3.27,8.08a12.06,12.06,0,0,1-8.17,2.82A11.7,11.7,0,0,1,46,343.39c-2.13-1.88-3.18-4.57-3.18-8.08V265c0-3.39,1-6,3.18-7.81a11.68,11.68,0,0,1,7.9-2.73,10.93,10.93,0,0,1,7.63,2.64c1.93,1.75,2.9,4.27,2.9,7.54v7.26a26.91,26.91,0,0,1,10.27-12.35,31.36,31.36,0,0,1,15.16-4.9l2.55-.19C95.59,254.23,98.08,254.9,99.89,256.47Z" transform="translate(-42.86 -216.15)"/><path class="cls-1" d="M123.6,340.94a39,39,0,0,1-15.9-16.17q-5.62-10.53-5.63-24.52t5.63-24.43a39.16,39.16,0,0,1,15.9-16.08q10.26-5.62,23.88-5.63t23.89,5.63a38.52,38.52,0,0,1,15.8,16.08q5.55,10.44,5.54,24.43t-5.54,24.52a38.33,38.33,0,0,1-15.8,16.17q-10.26,5.63-23.89,5.63T123.6,340.94Zm40.6-19.26q5.81-7.26,5.81-21.43,0-14-5.81-21.35t-16.72-7.35q-10.89,0-16.8,7.35t-5.9,21.35q0,14.16,5.81,21.43T147.3,329Q158.39,329,164.2,321.68Z" transform="translate(-42.86 -216.15)"/><path class="cls-1" d="M291.17,257.38a10.21,10.21,0,0,1,3.09,7.81v71.75q0,20.9-11.63,31.61T248.3,379.27q-19.8,0-33.06-7.45-6.72-4-6.72-9.63a9.8,9.8,0,0,1,1.91-6.36,6.11,6.11,0,0,1,5-2.36,12.56,12.56,0,0,1,4,.82q2.36.81,4.9,1.91A105.65,105.65,0,0,0,236,360.37a44,44,0,0,0,11.9,1.46q23.79,0,23.79-23.25V327a27.75,27.75,0,0,1-11.62,11.54,36.42,36.42,0,0,1-17.44,4.08A37.51,37.51,0,0,1,208,321.5a50.18,50.18,0,0,1-5.08-23.07,51.5,51.5,0,0,1,5-23.16A37.15,37.15,0,0,1,222,259.65a39,39,0,0,1,20.71-5.54,36.31,36.31,0,0,1,17.44,4.09,27.73,27.73,0,0,1,11.62,11.53V265a10,10,0,0,1,3.09-7.63,12.94,12.94,0,0,1,16.35,0Zm-25.52,60.49q6.08-7.08,6.08-19.44,0-12.53-6.08-19.62t-17-7.08q-10.71,0-16.89,7.08t-6.18,19.62q0,12.36,6.18,19.44T248.66,325Q259.57,325,265.65,317.87Z" transform="translate(-42.86 -216.15)"/><path class="cls-1" d="M392.53,257.38a10.24,10.24,0,0,1,3.08,7.81v70.48a9.88,9.88,0,0,1-3.17,7.63,11.78,11.78,0,0,1-8.27,2.91,11,11,0,0,1-7.81-2.73,9.72,9.72,0,0,1-2.91-7.45v-4.54a28.85,28.85,0,0,1-11.26,11.17,32.47,32.47,0,0,1-16,3.91q-32.7,0-32.7-36.69V265.19a10.21,10.21,0,0,1,3.09-7.81,11.43,11.43,0,0,1,8.17-2.91,11.71,11.71,0,0,1,8.36,2.91,10.21,10.21,0,0,1,3.09,7.81v44.87q0,9.45,3.81,14t12,4.55q9.44,0,15.17-6.27t5.72-16.62V265.19a10.21,10.21,0,0,1,3.09-7.81,11.41,11.41,0,0,1,8.17-2.91A11.71,11.71,0,0,1,392.53,257.38Z" transform="translate(-42.86 -216.15)"/><path class="cls-1" d="M490.89,323.14a9.81,9.81,0,0,1,1.9,6.35q0,5.64-6.72,9.45a60.67,60.67,0,0,1-14,5.54,57.72,57.72,0,0,1-14.89,2.09q-21.43,0-34-12.35t-12.53-33.79a51.9,51.9,0,0,1,5.45-24.16,39.66,39.66,0,0,1,15.35-16.35,43.5,43.5,0,0,1,22.43-5.81,40.3,40.3,0,0,1,20.89,5.27,35.84,35.84,0,0,1,13.81,14.89q4.9,9.63,4.9,22.71,0,7.81-6.9,7.81H433q1.1,12.54,7.09,18.44t17.43,5.9a33.07,33.07,0,0,0,10.27-1.45,101.81,101.81,0,0,0,10.08-4c3.63-1.93,6.29-2.91,8-2.91A6.12,6.12,0,0,1,490.89,323.14Zm-51.23-47.23q-5.54,5.82-6.63,16.71h41.05q-.36-11.08-5.45-16.8t-14.17-5.72Q445.21,270.1,439.66,275.91Z" transform="translate(-42.86 -216.15)"/><path class="cls-1" d="M591.61,290.62v44.69a10.61,10.61,0,0,1-3,8c-2,1.94-4.75,2.91-8.27,2.91A11.68,11.68,0,0,1,572,343.3a10.44,10.44,0,0,1-3.09-8V290.62q0-9.63-3.9-14.08t-12.27-4.45q-9.79,0-15.71,6.18t-5.9,16.53v40.51a10.44,10.44,0,0,1-3.09,8,11.68,11.68,0,0,1-8.35,2.91c-3.52,0-6.27-1-8.27-2.91a10.61,10.61,0,0,1-3-8V226.68a9.85,9.85,0,0,1,3.18-7.63,13.43,13.43,0,0,1,16.44-.18,9.43,9.43,0,0,1,3.09,7.45v42.32a29.74,29.74,0,0,1,12.08-10.81,38.24,38.24,0,0,1,17.16-3.72Q591.61,254.11,591.61,290.62Z" transform="translate(-42.86 -216.15)"/><path class="cls-1" d="M795.23,257.38a10.21,10.21,0,0,1,3.09,7.81v71.75q0,20.9-11.63,31.61t-34.33,10.72q-19.8,0-33.06-7.45-6.72-4-6.72-9.63a9.86,9.86,0,0,1,1.91-6.36,6.11,6.11,0,0,1,5-2.36,12.56,12.56,0,0,1,4,.82q2.35.81,4.91,1.91a104.84,104.84,0,0,0,11.71,4.17,44.09,44.09,0,0,0,11.9,1.46q23.79,0,23.8-23.25V327a27.78,27.78,0,0,1-11.63,11.54,36.42,36.42,0,0,1-17.44,4.08A38.4,38.4,0,0,1,726.12,337,38,38,0,0,1,712,321.5,50.05,50.05,0,0,1,707,298.43a51.37,51.37,0,0,1,5-23.16A37.13,37.13,0,0,1,726,259.65a39,39,0,0,1,20.71-5.54,36.31,36.31,0,0,1,17.44,4.09,27.75,27.75,0,0,1,11.63,11.53V265a10,10,0,0,1,3.08-7.63,12.94,12.94,0,0,1,16.35,0Zm-25.52,60.49q6.07-7.08,6.09-19.44,0-12.53-6.09-19.62t-17-7.08q-10.72,0-16.9,7.08t-6.17,19.62q0,12.36,6.17,19.44t16.9,7.08Q763.62,325,769.71,317.87Z" transform="translate(-42.86 -216.15)"/><path class="cls-1" d="M625.48,341.12A38.89,38.89,0,0,1,609.59,325Q604,314.42,604,300.43T609.59,276a39.14,39.14,0,0,1,15.89-16.08q10.26-5.62,23.89-5.63t23.89,5.63A38.63,38.63,0,0,1,689.06,276q5.54,10.44,5.54,24.43T689.06,325a38.39,38.39,0,0,1-15.8,16.17q-10.28,5.63-23.89,5.63T625.48,341.12Zm40.6-19.25q5.82-7.28,5.81-21.44,0-14-5.81-21.34t-16.71-7.36q-10.9,0-16.8,7.36t-5.91,21.34q0,14.18,5.82,21.44t16.71,7.26Q660.26,329.13,666.08,321.87Z" transform="translate(-42.86 -216.15)"/><path class="cls-1" d="M665.28,298.07l-23.95-13.83a2.83,2.83,0,0,0-4.25,2.45v27.66a2.83,2.83,0,0,0,4.25,2.45L665.28,303A2.83,2.83,0,0,0,665.28,298.07Z" transform="translate(-42.86 -216.15)"/></svg>