<svg id="Layer_1" data-name="Layer 1" xmlns="http://www.w3.org/2000/svg" viewBox="0 0 731.18 133.42"><defs><style>.cls-1{fill:#484948;}.cls-2{fill:#e41915;}</style></defs><path class="cls-1" d="M93,265.77q2.23,1.94,2.23,5.8c0,2.67-.65,4.66-1.93,5.94s-3.62,2.13-7,2.53l-4.46.44q-8.78.9-12.85,5.95a19.37,19.37,0,0,0-4.09,12.62v31.2a8.27,8.27,0,0,1-2.67,6.62,9.92,9.92,0,0,1-6.69,2.3,9.62,9.62,0,0,1-6.61-2.3,8.39,8.39,0,0,1-2.6-6.62V272.76a8,8,0,0,1,2.6-6.39,9.56,9.56,0,0,1,6.46-2.23,9,9,0,0,1,6.24,2.15A7.9,7.9,0,0,1,64,272.46v5.94a22,22,0,0,1,8.39-10.1,25.76,25.76,0,0,1,12.41-4l2.08-.15A8,8,0,0,1,93,265.77Z" transform="translate(-46.33 -232.79)"/><path class="cls-1" d="M112.37,334.86a31.86,31.86,0,0,1-13-13.22,42,42,0,0,1-4.61-20.06,41.46,41.46,0,0,1,4.61-20,31.92,31.92,0,0,1,13-13.15,40,40,0,0,1,19.54-4.61,39.93,39.93,0,0,1,19.53,4.61,31.47,31.47,0,0,1,12.93,13.15,42,42,0,0,1,4.53,20,42.51,42.51,0,0,1-4.53,20.06,31.41,31.41,0,0,1-12.93,13.22,39.93,39.93,0,0,1-19.53,4.61A40,40,0,0,1,112.37,334.86Zm33.2-15.75q4.76-5.94,4.76-17.53t-4.76-17.46q-4.75-6-13.66-6t-13.75,6q-4.83,6-4.82,17.46,0,11.6,4.75,17.53t13.67,5.94Q140.82,325.05,145.57,319.11Z" transform="translate(-46.33 -232.79)"/><path class="cls-1" d="M249.43,266.52a8.35,8.35,0,0,1,2.52,6.39v58.68q0,17.09-9.51,25.85t-28.08,8.77q-16.19,0-27-6.09-5.49-3.27-5.49-7.88a8,8,0,0,1,1.56-5.2,5,5,0,0,1,4.08-1.93,10.25,10.25,0,0,1,3.27.67c1.29.45,2.62,1,4,1.56a85.77,85.77,0,0,0,9.59,3.42,36.15,36.15,0,0,0,9.73,1.19q19.45,0,19.46-19v-9.51a22.64,22.64,0,0,1-9.51,9.43,29.7,29.7,0,0,1-14.26,3.35,31.53,31.53,0,0,1-16.87-4.53A31.13,31.13,0,0,1,181.38,319a41,41,0,0,1-4.16-18.87,42,42,0,0,1,4.09-18.94,30.4,30.4,0,0,1,11.51-12.78,31.88,31.88,0,0,1,16.94-4.53A29.7,29.7,0,0,1,224,267.19a22.64,22.64,0,0,1,9.51,9.43v-3.86a8.14,8.14,0,0,1,2.53-6.24,10.58,10.58,0,0,1,13.37,0ZM228.55,316q5-5.79,5-15.9t-5-16q-5-5.79-13.89-5.8t-13.82,5.8q-5,5.79-5.05,16t5.05,15.9q5.06,5.79,13.82,5.8T228.55,316Z" transform="translate(-46.33 -232.79)"/><path class="cls-1" d="M332.33,266.52a8.35,8.35,0,0,1,2.52,6.39v57.64a8,8,0,0,1-2.6,6.24,9.59,9.59,0,0,1-6.76,2.38,8.92,8.92,0,0,1-6.38-2.23,7.92,7.92,0,0,1-2.38-6.09v-3.72a23.65,23.65,0,0,1-9.21,9.14,26.65,26.65,0,0,1-13.08,3.2q-26.74,0-26.74-30V272.91a8.32,8.32,0,0,1,2.53-6.39,9.32,9.32,0,0,1,6.68-2.38,9.58,9.58,0,0,1,6.84,2.38,8.35,8.35,0,0,1,2.52,6.39V309.6q0,7.72,3.12,11.44t9.81,3.72q7.73,0,12.4-5.13T316.28,306V272.91a8.32,8.32,0,0,1,2.53-6.39,9.32,9.32,0,0,1,6.68-2.38A9.56,9.56,0,0,1,332.33,266.52Z" transform="translate(-46.33 -232.79)"/><path class="cls-1" d="M412.78,320.3a8,8,0,0,1,1.56,5.2q0,4.61-5.5,7.73a49.82,49.82,0,0,1-11.44,4.53,47.56,47.56,0,0,1-12.18,1.71q-17.54,0-27.78-10.11t-10.26-27.63A42.4,42.4,0,0,1,351.64,282,32.43,32.43,0,0,1,364.2,268.6a35.51,35.51,0,0,1,18.34-4.76,33,33,0,0,1,17.09,4.31,29.3,29.3,0,0,1,11.29,12.18,40.39,40.39,0,0,1,4,18.58q0,6.39-5.64,6.38H365.46q.89,10.26,5.79,15.08t14.26,4.83a26.87,26.87,0,0,0,8.4-1.19,85.31,85.31,0,0,0,8.25-3.26c3-1.59,5.14-2.38,6.53-2.38A5,5,0,0,1,412.78,320.3Zm-41.9-38.63q-4.53,4.75-5.42,13.67H399q-.3-9.06-4.46-13.74T383,276.92Q375.42,276.92,370.88,281.67Z" transform="translate(-46.33 -232.79)"/><path class="cls-1" d="M495.16,293.71v36.54a8.69,8.69,0,0,1-2.45,6.54,9.29,9.29,0,0,1-6.76,2.38,9.56,9.56,0,0,1-6.84-2.38,8.54,8.54,0,0,1-2.52-6.54V293.71q0-7.87-3.2-11.52t-10-3.64q-8,0-12.85,5.05t-4.82,13.52v33.13a8.55,8.55,0,0,1-2.53,6.54,9.55,9.55,0,0,1-6.83,2.38,9.3,9.3,0,0,1-6.77-2.38,8.69,8.69,0,0,1-2.45-6.54V241.41a8.05,8.05,0,0,1,2.6-6.24,11,11,0,0,1,13.45-.15,7.73,7.73,0,0,1,2.53,6.09v34.62a24.28,24.28,0,0,1,9.87-8.84,31.31,31.31,0,0,1,14.05-3.05Q495.16,263.84,495.16,293.71Z" transform="translate(-46.33 -232.79)"/><path class="cls-1" d="M661.71,266.52a8.35,8.35,0,0,1,2.52,6.39v58.68q0,17.09-9.51,25.85t-28.08,8.77q-16.18,0-27-6.09-5.49-3.27-5.5-7.88a8,8,0,0,1,1.57-5.2,5,5,0,0,1,4.08-1.93,10.25,10.25,0,0,1,3.27.67c1.29.45,2.62,1,4,1.56a86.39,86.39,0,0,0,9.58,3.42,36.27,36.27,0,0,0,9.74,1.19q19.46,0,19.46-19v-9.51a22.64,22.64,0,0,1-9.51,9.43A29.7,29.7,0,0,1,622,336.2a31.53,31.53,0,0,1-16.87-4.53A31.13,31.13,0,0,1,593.66,319a41,41,0,0,1-4.16-18.87,42,42,0,0,1,4.09-18.94,30.4,30.4,0,0,1,11.51-12.78A31.88,31.88,0,0,1,622,263.84a29.7,29.7,0,0,1,14.26,3.35,22.64,22.64,0,0,1,9.51,9.43v-3.86a8.17,8.17,0,0,1,2.52-6.24,10.59,10.59,0,0,1,13.38,0ZM640.83,316q5-5.79,5-15.9t-5-16q-5-5.79-13.89-5.8t-13.82,5.8q-5.05,5.79-5,16t5,15.9q5.05,5.79,13.82,5.8T640.83,316Z" transform="translate(-46.33 -232.79)"/><path class="cls-2" d="M522.87,335a31.86,31.86,0,0,1-13-13.22,42,42,0,0,1-4.61-20.06,41.46,41.46,0,0,1,4.61-20,31.92,31.92,0,0,1,13-13.15,43.7,43.7,0,0,1,39.07,0,31.58,31.58,0,0,1,12.93,13.15,42,42,0,0,1,4.53,20,42.51,42.51,0,0,1-4.53,20.06A31.52,31.52,0,0,1,561.94,335a43.78,43.78,0,0,1-39.07,0Zm33.2-15.75q4.75-5.94,4.76-17.53t-4.76-17.46q-4.76-6-13.67-6t-13.74,6q-4.83,6-4.83,17.46t4.76,17.53q4.75,5.94,13.67,5.94T556.07,319.26Z" transform="translate(-46.33 -232.79)"/><path class="cls-2" d="M554.64,299.35l-18-10.42a2.83,2.83,0,0,0-4.25,2.46v20.83a2.83,2.83,0,0,0,4.25,2.45l18-10.41A2.83,2.83,0,0,0,554.64,299.35Z" transform="translate(-46.33 -232.79)"/><path class="cls-1" d="M698.29,248.6c0-2-1.51-3-4.17-3a15.81,15.81,0,0,0-2.51.15v6.06h1.93C696.63,251.8,698.29,250.53,698.29,248.6Z" transform="translate(-46.33 -232.79)"/><path class="cls-1" d="M693.62,256h-2v7.33a17.92,17.92,0,0,0,2.28.08c2.66,0,5-1,5-3.74S696.55,256,693.62,256Z" transform="translate(-46.33 -232.79)"/><path class="cls-1" d="M771.84,233.1H682.56a5.67,5.67,0,0,0-5.67,5.67v31a5.67,5.67,0,0,0,5.67,5.67h89.28a5.67,5.67,0,0,0,5.67-5.67v-31A5.67,5.67,0,0,0,771.84,233.1Zm-69.46,32.33c-1.89,1.5-5.06,2.35-10.23,2.35a46.16,46.16,0,0,1-6.37-.38V241.84a46.68,46.68,0,0,1,7.6-.54c3.59,0,5.79.35,7.69,1.47a5.66,5.66,0,0,1,3.12,5.09c0,2.32-1.35,4.48-4.28,5.56v.08a6.51,6.51,0,0,1,5.17,6.41A6.94,6.94,0,0,1,702.38,265.43Zm23.32,2.08H709.09v-26h16.06v4.83H715v5.4h9.58v4.79H715v6.18h10.7Zm15.13,0h-5.91V246.44h-7v-4.95h20v4.95h-7.1Zm23,0-2-6.68h-7.45l-1.86,6.68h-6.1l8-26h7.72l8.07,26Z" transform="translate(-46.33 -232.79)"/><path class="cls-1" d="M758,245.9h-.07c-.39,1.54-.78,3.51-1.2,5l-1.54,5.52h5.75l-1.62-5.52C758.85,249.37,758.39,247.44,758,245.9Z" transform="translate(-46.33 -232.79)"/></svg>